<svg width="64" height="64" viewBox="0 0 64 64" fill="none" xmlns="http://www.w3.org/2000/svg">
  <rect width="64" height="64" rx="16" fill="#0f172a"/>
  <rect x="14" y="10" width="36" height="44" rx="5" fill="#f8fafc"/>
  <path d="M42 10v11a3 3 0 0 0 3 3h5" fill="#dbeafe"/>
  <path d="M42 10l8 14" stroke="#93c5fd" stroke-width="2" stroke-linejoin="round"/>
  <rect x="21" y="24" width="22" height="3.5" rx="1.75" fill="#2563eb"/>
  <rect x="21" y="32" width="18" height="3.5" rx="1.75" fill="#64748b"/>
  <rect x="21" y="40" width="13" height="3.5" rx="1.75" fill="#64748b"/>
  <path d="M44 36l2.1 4.25 4.69.68-3.4 3.31.8 4.67L44 46.7l-4.2 2.21.8-4.67-3.39-3.31 4.69-.68L44 36z" fill="#facc15"/>
</svg>
